<svg xmlns="http://www.w3.org/2000/svg" xmlns:xlink="http://www.w3.org/1999/xlink" width="320" height="460" viewBox="0 20 320 460">
 <defs>
  <linearGradient id="linear">
   <stop stop-color="#222" offset="0"/>
   <stop stop-color="#000" offset="1"/>
  </linearGradient>
  <radialGradient id="radial" cx="160" cy="160" fx="160" fy="160" gradientUnits="userSpaceOnUse" r="360" xlink:href="#linear"/>
 </defs>
 <rect x="0" y="0" width="320" height="480" fill="url(#radial)" stroke="none"/>
 <path stroke="black" stroke-width="1" fill="none"
   d="M 0.5 0.5 L 0.5 479.5 L 319.5 479.5 L 319.5 0.5 z
      M   5.5 0.5 L   5.5 479.5
      M  10.5 0.5 L  10.5 479.5
      M  15.5 0.5 L  15.5 479.5
      M  20.5 0.5 L  20.5 479.5
      M  25.5 0.5 L  25.5 479.5
      M  30.5 0.5 L  30.5 479.5
      M  35.5 0.5 L  35.5 479.5
      M  40.5 0.5 L  40.5 479.5
      M  45.5 0.5 L  45.5 479.5
      M  50.5 0.5 L  50.5 479.5
      M  55.5 0.5 L  55.5 479.5
      M  60.5 0.5 L  60.5 479.5
      M  65.5 0.5 L  65.5 479.5
      M  70.5 0.5 L  70.5 479.5
      M  75.5 0.5 L  75.5 479.5
      M  80.5 0.5 L  80.5 479.5
      M  85.5 0.5 L  85.5 479.5
      M  90.5 0.5 L  90.5 479.5
      M  95.5 0.5 L  95.5 479.5
      M 100.5 0.5 L 100.5 479.5
      M 105.5 0.5 L 105.5 479.5
      M 110.5 0.5 L 110.5 479.5
      M 115.5 0.5 L 115.5 479.5
      M 120.5 0.5 L 120.5 479.5
      M 125.5 0.5 L 125.5 479.5
      M 130.5 0.5 L 130.5 479.5
      M 135.5 0.5 L 135.5 479.5
      M 140.5 0.5 L 140.5 479.5
      M 145.5 0.5 L 145.5 479.5
      M 150.5 0.5 L 150.5 479.5
      M 155.5 0.5 L 155.5 479.5
      M 160.5 0.5 L 160.5 479.5
      M 165.5 0.5 L 165.5 479.5
      M 170.5 0.5 L 170.5 479.5
      M 175.5 0.5 L 175.5 479.5
      M 180.5 0.5 L 180.5 479.5
      M 185.5 0.5 L 185.5 479.5
      M 190.5 0.5 L 190.5 479.5
      M 195.5 0.5 L 195.5 479.5
      M 200.5 0.5 L 200.5 479.5
      M 205.5 0.5 L 205.5 479.5
      M 210.5 0.5 L 210.5 479.5
      M 215.5 0.5 L 215.5 479.5
      M 220.5 0.5 L 220.5 479.5
      M 225.5 0.5 L 225.5 479.5
      M 230.5 0.5 L 230.5 479.5
      M 235.5 0.5 L 235.5 479.5
      M 240.5 0.5 L 240.5 479.5
      M 245.5 0.5 L 245.5 479.5
      M 250.5 0.5 L 250.5 479.5
      M 255.5 0.5 L 255.5 479.5
      M 260.5 0.5 L 260.5 479.5
      M 265.5 0.5 L 265.5 479.5
      M 270.5 0.5 L 270.5 479.5
      M 275.5 0.5 L 275.5 479.5
      M 280.5 0.5 L 280.5 479.5
      M 285.5 0.5 L 285.5 479.5
      M 290.5 0.5 L 290.5 479.5
      M 295.5 0.5 L 295.5 479.5
      M 300.5 0.5 L 300.5 479.5
      M 305.5 0.5 L 305.5 479.5
      M 310.5 0.5 L 310.5 479.5
      M 315.5 0.5 L 315.5 479.5
      M 0.5   5.5 L 319.5   5.5
      M 0.5  10.5 L 319.5  10.5
      M 0.5  15.5 L 319.5  15.5
      M 0.5  20.5 L 319.5  20.5
      M 0.5  25.5 L 319.5  25.5
      M 0.5  30.5 L 319.5  30.5
      M 0.5  35.5 L 319.5  35.5
      M 0.5  40.5 L 319.5  40.5
      M 0.5  45.5 L 319.5  45.5
      M 0.5  50.5 L 319.5  50.5
      M 0.5  55.5 L 319.5  55.5
      M 0.5  60.5 L 319.5  60.5
      M 0.5  65.5 L 319.5  65.5
      M 0.5  70.5 L 319.5  70.5
      M 0.5  75.5 L 319.5  75.5
      M 0.5  80.5 L 319.5  80.5
      M 0.5  85.5 L 319.5  85.5
      M 0.5  90.5 L 319.5  90.5
      M 0.5  95.5 L 319.5  95.5
      M 0.5 100.5 L 319.5 100.5
      M 0.5 105.5 L 319.5 105.5
      M 0.5 110.5 L 319.5 110.5
      M 0.5 115.5 L 319.5 115.5
      M 0.5 120.5 L 319.5 120.5
      M 0.5 125.5 L 319.5 125.5
      M 0.5 130.5 L 319.5 130.5
      M 0.5 135.5 L 319.5 135.5
      M 0.5 140.5 L 319.5 140.5
      M 0.5 145.5 L 319.5 145.5
      M 0.5 150.5 L 319.5 150.5
      M 0.5 155.5 L 319.5 155.5
      M 0.5 160.5 L 319.5 160.5
      M 0.5 165.5 L 319.5 165.5
      M 0.5 170.5 L 319.5 170.5
      M 0.5 175.5 L 319.5 175.5
      M 0.5 180.5 L 319.5 180.5
      M 0.5 185.5 L 319.5 185.5
      M 0.5 190.5 L 319.5 190.5
      M 0.5 195.5 L 319.5 195.5
      M 0.5 200.5 L 319.5 200.5
      M 0.5 205.5 L 319.5 205.5
      M 0.5 210.5 L 319.5 210.5
      M 0.5 215.5 L 319.5 215.5
      M 0.5 220.5 L 319.5 220.5
      M 0.5 225.5 L 319.5 225.5
      M 0.5 230.5 L 319.5 230.5
      M 0.5 235.5 L 319.5 235.5
      M 0.5 240.5 L 319.5 240.5
      M 0.5 245.5 L 319.5 245.5
      M 0.5 250.5 L 319.5 250.5
      M 0.5 255.5 L 319.5 255.5
      M 0.5 260.5 L 319.5 260.5
      M 0.5 265.5 L 319.5 265.5
      M 0.5 270.5 L 319.5 270.5
      M 0.5 275.5 L 319.5 275.5
      M 0.5 280.5 L 319.5 280.5
      M 0.5 285.5 L 319.5 285.5
      M 0.5 290.5 L 319.5 290.5
      M 0.5 295.5 L 319.5 295.5
      M 0.5 300.5 L 319.5 300.5
      M 0.5 305.5 L 319.5 305.5
      M 0.5 310.5 L 319.5 310.5
      M 0.5 315.5 L 319.5 315.5
      M 0.5 320.5 L 319.5 320.5
      M 0.5 325.5 L 319.5 325.5
      M 0.5 330.5 L 319.5 330.5
      M 0.5 335.5 L 319.5 335.5
      M 0.5 340.5 L 319.5 340.5
      M 0.5 345.5 L 319.5 345.5
      M 0.5 350.5 L 319.5 350.5
      M 0.5 355.5 L 319.5 355.5
      M 0.5 360.5 L 319.5 360.5
      M 0.5 365.5 L 319.5 365.5
      M 0.5 370.5 L 319.5 370.5
      M 0.5 375.5 L 319.5 375.5
      M 0.5 380.5 L 319.5 380.5
      M 0.5 385.5 L 319.5 385.5
      M 0.5 390.5 L 319.5 390.5
      M 0.5 395.5 L 319.5 395.5
      M 0.5 400.5 L 319.5 400.5
      M 0.5 405.5 L 319.5 405.5
      M 0.5 410.5 L 319.5 410.5
      M 0.5 415.5 L 319.5 415.5
      M 0.5 420.5 L 319.5 420.5
      M 0.5 425.5 L 319.5 425.5
      M 0.5 430.5 L 319.5 430.5
      M 0.5 435.5 L 319.5 435.5
      M 0.5 440.5 L 319.5 440.5
      M 0.5 445.5 L 319.5 445.5
      M 0.5 450.5 L 319.5 450.5
      M 0.5 455.5 L 319.5 455.5
      M 0.5 460.5 L 319.5 460.5
      M 0.5 465.5 L 319.5 465.5
      M 0.5 470.5 L 319.5 470.5
      M 0.5 475.5 L 319.5 475.5
"/>
 <text x="160" y="163.5" fill="#333" style="font-family:Arial Black;font-weight:bold;text-anchor:middle;font-size:40px;">Vitamins</text>
 <text x="160" y="162.5" fill="black" style="font-family:Arial Black;font-weight:bold;text-anchor:middle;font-size:40px;">Vitamins</text>

 <path
 stroke-width="1.15657628" stroke-linecap="butt" stroke-linejoin="miter" stroke-miterlimit="4" fill="#333" stroke="#333"
   transform="translate(135 186) matrix(1.7292418,0,0,1.7292418,-27.847734,1.1299381)"

   d="m 21.570623,14.008788 c -0.772961,0.871694 -6.94139,5.203579 -3.888501,5.904759 3.325848,0.763872 11.233443,7.488961 11.233443,7.488961 0,0 9.638055,-15.625903 15.265961,-19.8745522 1.968315,-1.4859305 -7.48773,-5.5757996 -8.065035,-4.7526109 -0.568866,0.8111546 -8.065037,17.1382021 -8.065037,17.1382021 0,0 -5.767673,-6.709011 -6.480831,-5.904759 z"
/>
 <path
 stroke-width="1.15657628" stroke-linecap="butt" stroke-linejoin="miter" stroke-miterlimit="4" fill="black" stroke="black"
   transform="translate(135 185) matrix(1.7292418,0,0,1.7292418,-27.847734,1.1299381)"

   d="m 21.570623,14.008788 c -0.772961,0.871694 -6.94139,5.203579 -3.888501,5.904759 3.325848,0.763872 11.233443,7.488961 11.233443,7.488961 0,0 9.638055,-15.625903 15.265961,-19.8745522 1.968315,-1.4859305 -7.48773,-5.5757996 -8.065035,-4.7526109 -0.568866,0.8111546 -8.065037,17.1382021 -8.065037,17.1382021 0,0 -5.767673,-6.709011 -6.480831,-5.904759 z"
/>

</svg>